<svg viewBox="0 0 32 32" xmlns="http://www.w3.org/2000/svg" xmlns:xlink="http://www.w3.org/1999/xlink" width="20.000000" height="20.000000" fill="none">
	<rect id="Chevronsleft 1" width="31.999920" height="31.999920" x="0.000000" y="0.000000" />
	<g id="Сочетание 3">
		<path id="Форма 14" d="M4.53412 13.3993L0 8.77851L4.93419 3.89373C8.80153 0.0651124 10.1351 -0.727015 11.4687 0.593197C12.6689 1.78139 12.4022 2.83756 9.86838 5.47798L6.80118 8.77851L9.73503 11.947C12.5355 14.8515 12.6689 18.02 10.0017 18.02C9.46831 18.02 7.0679 15.9077 4.53412 13.3993Z" fill="rgb(255,255,255)" fill-rule="nonzero" transform="matrix(1,0,0,-1,4,25.02)" />
		<path id="Форма 15" d="M4.53412 13.3993L0 8.77851L4.93419 3.89373C8.80153 0.0651124 10.1351 -0.727015 11.4687 0.593197C12.6689 1.78139 12.4022 2.83756 9.86838 5.47798L6.80118 8.77851L9.73503 11.947C12.5355 14.8515 12.6689 18.02 10.0017 18.02C9.46831 18.02 7.0679 15.9077 4.53412 13.3993Z" fill="rgb(255,255,255)" fill-rule="nonzero" transform="matrix(1,0,0,-1,16.0022,25.02)" />
	</g>
</svg>
