<svg viewBox="0 0 32 32" xmlns="http://www.w3.org/2000/svg" xmlns:xlink="http://www.w3.org/1999/xlink" width="20.000000" height="20.000000" fill="none">
	<rect id="ChevronsRight 1" width="31.999920" height="31.999920" x="0.000000" y="0.000000" />
	<g id="Сочетание 4">
		<path id="Форма 16" d="M0.289128 16.7324C-0.244204 15.9324 0.689127 13.9324 2.42246 12.0657L5.35578 8.86574L2.28912 5.53241C-0.244204 2.86575 -0.51087 1.79909 0.689127 0.599091C2.02246 -0.734239 3.35579 0.0657589 7.22244 3.93242L12.1558 8.86574L7.62244 13.5324C2.82246 18.4657 1.62246 18.999 0.289128 16.7324Z" fill="rgb(255,255,255)" fill-rule="nonzero" transform="matrix(1,0,0,-1,4.37744,24.8657)" />
		<path id="Форма 17" d="M0.289128 16.7324C-0.244204 15.9324 0.689127 13.9324 2.42246 12.0657L5.35578 8.86574L2.28912 5.53241C-0.244204 2.86575 -0.51087 1.79909 0.689127 0.599091C2.02246 -0.734239 3.35579 0.0657589 7.22244 3.93242L12.1558 8.86574L7.62244 13.5324C2.82246 18.4657 1.62246 18.999 0.289128 16.7324Z" fill="rgb(255,255,255)" fill-rule="nonzero" transform="matrix(1,0,0,-1,16.3774,24.8657)" />
	</g>
</svg>
