<svg viewBox="0 0 18 20" xmlns="http://www.w3.org/2000/svg" xmlns:xlink="http://www.w3.org/1999/xlink" width="18.000000" height="20.000000" fill="none">
	<rect id="Выход 1" width="18.000000" height="20.000000" x="0.000000" y="0.000000" transform="matrix(-1,0,0,1,18,0)" />
	<path id="Форма 25" d="M13.9935 0L0 0L0 16.3636L14 16.3636" fill-rule="nonzero" stroke="rgb(255,255,255)" stroke-linecap="round" stroke-linejoin="round" stroke-width="1.5" transform="matrix(-1,0,0,1,16,1.81818)" />
	<path id="Форма 26" d="M0 8.18182L3.75 4.09091L0 0" fill-rule="nonzero" stroke="rgb(255,255,255)" stroke-linecap="round" stroke-linejoin="round" stroke-width="1.5" transform="matrix(-1,0,0,1,6,5.45456)" />
	<path id="Форма 27" d="M0 0L10.8333 0" stroke="rgb(255,255,255)" stroke-linecap="round" stroke-linejoin="round" stroke-width="1.5" transform="matrix(-1,0,0,1,14,10)" />
	<path id="Форма 28" d="M0 0L1.81818 0L3.63636 0" stroke="rgb(255,255,255)" stroke-linecap="round" stroke-linejoin="round" stroke-width="1.5" transform="matrix(0,1,1,0,1.99902,1.81818)" />
	<path id="Форма 29" d="M0 0L1.81818 0L3.63636 0" stroke="rgb(255,255,255)" stroke-linecap="round" stroke-linejoin="round" stroke-width="1.5" transform="matrix(0,1,1,0,1.99902,14.5454)" />
</svg>
