<svg viewBox="0 0 20 20" xmlns="http://www.w3.org/2000/svg" xmlns:xlink="http://www.w3.org/1999/xlink" width="20.000000" height="20.000000" fill="none">
	<rect id="Мой 1" width="20.000000" height="20.000000" x="0.000000" y="0.000000" />
	<path id="Форма 30" d="M18.3333 10C18.3333 5.39764 14.6023 1.66669 9.99996 1.66669C5.39758 1.66669 1.66663 5.39764 1.66663 10C1.66663 14.6024 5.39758 18.3334 9.99996 18.3334C14.6023 18.3334 18.3333 14.6024 18.3333 10Z" fill-rule="evenodd" stroke="rgb(255,255,255)" stroke-linecap="round" stroke-linejoin="round" stroke-width="1.5" />
	<path id="Форма 31" d="M12.0833 7.50002C12.0833 6.34944 11.1505 5.41669 9.99996 5.41669C8.84938 5.41669 7.91663 6.34944 7.91663 7.50002C7.91663 8.6506 8.84938 9.58335 9.99996 9.58335C11.1505 9.58335 12.0833 8.6506 12.0833 7.50002Z" fill-rule="nonzero" stroke="rgb(255,255,255)" stroke-linejoin="round" stroke-width="1.5" />
	<path id="Форма 32" d="M4.17578 15.9716C4.31899 13.8002 6.12561 12.0833 8.33328 12.0833L11.6666 12.0833C13.8714 12.0833 15.6762 13.7957 15.8236 15.963" fill-rule="nonzero" stroke="rgb(255,255,255)" stroke-linecap="round" stroke-linejoin="round" stroke-width="1.5" />
</svg>
